<svg width="170" height="274" viewBox="0 0 170 274" fill="none" xmlns="http://www.w3.org/2000/svg">
    <mask id="mask0_189_14566" style="mask-type:alpha" maskUnits="userSpaceOnUse" x="0" y="0" width="170" height="274">
        <rect width="170" height="274" fill="#C4C4C4"/>
    </mask>
    <rect width="100%" height="100%" fill="white"/>
    <g mask="url(#mask0_189_14566)">
        <rect y="-4" width="170" height="4267" fill="white"/>
        <path d="M0 -4H170V69.6082H0V-4Z" fill="#DDDDDD"/>
        <rect x="116.546" y="4.06186" width="39.0825" height="3.50515" fill="#EDECE8"/>
        <rect x="116.546" y="11.7732" width="48.5464" height="3.3299" fill="#1D1D1D"/>
        <rect x="116.546" y="16.1546" width="48.5464" height="3.3299" fill="#1D1D1D"/>
        <rect x="116.546" y="20.5361" width="48.5464" height="3.3299" fill="#1D1D1D"/>
        <rect x="116.546" y="24.9175" width="48.5464" height="3.3299" fill="#1D1D1D"/>
        <rect x="116.546" y="31.7526" width="48.5464" height="0.876289" fill="#979797"/>
        <rect x="116.546" y="34.732" width="48.5464" height="0.876289" fill="#979797"/>
        <rect x="116.546" y="37.7113" width="48.5464" height="0.876289" fill="#979797"/>
        <rect x="116.546" y="40.6907" width="48.5464" height="0.876289" fill="#979797"/>
        <rect x="116.546" y="43.6701" width="48.5464" height="0.876289" fill="#979797"/>
        <rect x="116.546" y="46.6495" width="48.5464" height="0.876289" fill="#979797"/>
        <rect x="116.546" y="49.6289" width="48.5464" height="0.876289" fill="#979797"/>
        <rect x="116.546" y="52.6082" width="48.5464" height="0.876289" fill="#979797"/>
        <rect x="116.546" y="55.5876" width="48.5464" height="0.876289" fill="#979797"/>
        <rect x="116.546" y="60.6701" width="18.0515" height="0.701031" fill="#979797"/>
        <rect x="4.90723" y="2.65979" width="105.33" height="60.2887" fill="#EDECE8"/>
        <rect x="4.90723" y="85.3814" width="49.5979" height="23.6517" fill="#EDECE8"/>
        <rect x="4.90723" y="113.423" width="10.237" height="2.97938" fill="#DADADA"/>
        <path d="M17.0374 113.423H36.6289V116.402H17.0374V113.423Z" fill="#DADADA"/>
        <rect x="5.08252" y="120.082" width="49.2437" height="3.50516" fill="#1D1D1D"/>
        <rect x="5.08252" y="124.464" width="49.2437" height="3.50514" fill="#1D1D1D"/>
        <rect x="5.08252" y="128.845" width="49.2437" height="3.50515" fill="#1D1D1D"/>
        <rect x="4.90723" y="136.031" width="49.2437" height="1.75258" fill="#979797"/>
        <rect x="4.90723" y="139.711" width="49.2437" height="1.75257" fill="#979797"/>
        <rect x="4.90723" y="143.392" width="49.2437" height="1.75257" fill="#979797"/>
        <rect x="4.90723" y="147.072" width="49.2437" height="1.75257" fill="#979797"/>
        <rect x="4.90723" y="150.753" width="49.2437" height="1.75257" fill="#979797"/>
        <rect x="4.90723" y="154.433" width="49.2437" height="1.75257" fill="#979797"/>
        <rect x="4.90723" y="164.948" width="11.567" height="1.92783" fill="#DADADA"/>
        <rect x="18.5774" y="164.948" width="7.53608" height="1.92783" fill="#DADADA"/>
        <path d="M4.90723 169.68H54.5052" stroke="#EDECE8" stroke-width="0.5" stroke-linecap="square"/>
        <rect x="59.7629" y="85.3814" width="49.5979" height="23.6517" fill="#EDECE8"/>
        <rect x="59.7629" y="113.423" width="10.237" height="2.97938" fill="#DADADA"/>
        <path d="M71.8931 113.423H91.4847V116.402H71.8931V113.423Z" fill="#DADADA"/>
        <rect x="59.9382" y="120.082" width="49.2437" height="3.50516" fill="#1D1D1D"/>
        <rect x="59.9382" y="124.464" width="49.2437" height="3.50514" fill="#1D1D1D"/>
        <rect x="59.9382" y="128.845" width="49.2437" height="3.50515" fill="#1D1D1D"/>
        <rect x="59.7629" y="136.031" width="49.2437" height="1.75258" fill="#979797"/>
        <rect x="59.7629" y="139.711" width="49.2437" height="1.75257" fill="#979797"/>
        <rect x="59.7629" y="143.392" width="49.2437" height="1.75257" fill="#979797"/>
        <rect x="59.7629" y="147.072" width="49.2437" height="1.75257" fill="#979797"/>
        <rect x="59.7629" y="150.753" width="49.2437" height="1.75257" fill="#979797"/>
        <rect x="59.7629" y="154.433" width="49.2437" height="1.75257" fill="#979797"/>
        <rect x="59.7629" y="164.948" width="11.567" height="1.92783" fill="#DADADA"/>
        <rect x="73.4331" y="164.948" width="7.53608" height="1.92783" fill="#DADADA"/>
        <path d="M59.7629 169.68H109.361" stroke="#EDECE8" stroke-width="0.5" stroke-linecap="square"/>
        <rect x="114.619" y="85.3814" width="49.5979" height="23.6517" fill="#EDECE8"/>
        <rect x="114.619" y="113.423" width="10.237" height="2.97938" fill="#DADADA"/>
        <path d="M126.749 113.423H146.34V116.402H126.749V113.423Z" fill="#DADADA"/>
        <rect x="114.794" y="120.082" width="49.2437" height="3.50516" fill="#1D1D1D"/>
        <rect x="114.794" y="124.464" width="49.2437" height="3.50514" fill="#1D1D1D"/>
        <rect x="114.794" y="128.845" width="49.2437" height="3.50515" fill="#1D1D1D"/>
        <rect x="114.619" y="136.031" width="49.2437" height="1.75258" fill="#979797"/>
        <rect x="114.619" y="139.711" width="49.2437" height="1.75257" fill="#979797"/>
        <rect x="114.619" y="143.392" width="49.2437" height="1.75257" fill="#979797"/>
        <rect x="114.619" y="147.072" width="49.2437" height="1.75257" fill="#979797"/>
        <rect x="114.619" y="150.753" width="49.2437" height="1.75257" fill="#979797"/>
        <rect x="114.619" y="154.433" width="49.2437" height="1.75257" fill="#979797"/>
        <rect x="114.619" y="164.948" width="11.567" height="1.92783" fill="#DADADA"/>
        <rect x="128.289" y="164.948" width="7.53608" height="1.92783" fill="#DADADA"/>
        <path d="M114.619 169.68H164.217" stroke="#EDECE8" stroke-width="0.5" stroke-linecap="square"/>
        <rect x="4.90723" y="175.464" width="49.5979" height="23.6517" fill="#EDECE8"/>
        <rect x="4.90723" y="203.505" width="10.237" height="2.97938" fill="#DADADA"/>
        <path d="M17.0374 203.505H36.6289V206.485H17.0374V203.505Z" fill="#DADADA"/>
        <rect x="5.08252" y="210.165" width="49.2437" height="3.50516" fill="#1D1D1D"/>
        <rect x="5.08252" y="214.546" width="49.2437" height="3.50514" fill="#1D1D1D"/>
        <rect x="5.08252" y="218.928" width="49.2437" height="3.50515" fill="#1D1D1D"/>
        <rect x="4.90723" y="226.113" width="49.2437" height="1.75258" fill="#979797"/>
        <rect x="4.90723" y="229.794" width="49.2437" height="1.75257" fill="#979797"/>
        <rect x="4.90723" y="233.474" width="49.2437" height="1.75257" fill="#979797"/>
        <rect x="4.90723" y="237.155" width="49.2437" height="1.75257" fill="#979797"/>
        <rect x="4.90723" y="240.835" width="49.2437" height="1.75257" fill="#979797"/>
        <rect x="4.90723" y="244.515" width="49.2437" height="1.75257" fill="#979797"/>
        <rect x="4.90723" y="255.031" width="11.567" height="1.92783" fill="#DADADA"/>
        <rect x="18.5774" y="255.031" width="7.53608" height="1.92783" fill="#DADADA"/>
        <path d="M4.90723 259.763H54.5052" stroke="#EDECE8" stroke-width="0.5" stroke-linecap="square"/>
        <rect x="59.7629" y="175.464" width="49.5979" height="23.6517" fill="#EDECE8"/>
        <rect x="59.7629" y="203.505" width="10.237" height="2.97938" fill="#DADADA"/>
        <path d="M71.8931 203.505H91.4847V206.485H71.8931V203.505Z" fill="#DADADA"/>
        <rect x="59.9382" y="210.165" width="49.2437" height="3.50516" fill="#1D1D1D"/>
        <rect x="59.9382" y="214.546" width="49.2437" height="3.50514" fill="#1D1D1D"/>
        <rect x="59.9382" y="218.928" width="49.2437" height="3.50515" fill="#1D1D1D"/>
        <rect x="59.7629" y="226.113" width="49.2437" height="1.75258" fill="#979797"/>
        <rect x="59.7629" y="229.794" width="49.2437" height="1.75257" fill="#979797"/>
        <rect x="59.7629" y="233.474" width="49.2437" height="1.75257" fill="#979797"/>
        <rect x="59.7629" y="237.155" width="49.2437" height="1.75257" fill="#979797"/>
        <rect x="59.7629" y="240.835" width="49.2437" height="1.75257" fill="#979797"/>
        <rect x="59.7629" y="244.515" width="49.2437" height="1.75257" fill="#979797"/>
        <rect x="59.7629" y="255.031" width="11.567" height="1.92783" fill="#DADADA"/>
        <rect x="73.4331" y="255.031" width="7.53608" height="1.92783" fill="#DADADA"/>
        <path d="M59.7629 259.763H109.361" stroke="#EDECE8" stroke-width="0.5" stroke-linecap="square"/>
        <rect x="114.619" y="175.464" width="49.5979" height="23.6517" fill="#EDECE8"/>
        <rect x="114.619" y="203.505" width="10.237" height="2.97938" fill="#DADADA"/>
        <path d="M126.749 203.505H146.34V206.485H126.749V203.505Z" fill="#DADADA"/>
        <rect x="114.794" y="210.165" width="49.2437" height="3.50516" fill="#1D1D1D"/>
        <rect x="114.794" y="214.546" width="49.2437" height="3.50514" fill="#1D1D1D"/>
        <rect x="114.794" y="218.928" width="49.2437" height="3.50515" fill="#1D1D1D"/>
        <rect x="114.619" y="226.113" width="49.2437" height="1.75258" fill="#979797"/>
        <rect x="114.619" y="229.794" width="49.2437" height="1.75257" fill="#979797"/>
        <rect x="114.619" y="233.474" width="49.2437" height="1.75257" fill="#979797"/>
        <rect x="114.619" y="237.155" width="49.2437" height="1.75257" fill="#979797"/>
        <rect x="114.619" y="240.835" width="49.2437" height="1.75257" fill="#979797"/>
        <rect x="114.619" y="244.515" width="49.2437" height="1.75257" fill="#979797"/>
        <rect x="114.619" y="255.031" width="11.567" height="1.92783" fill="#DADADA"/>
        <rect x="128.289" y="255.031" width="7.53608" height="1.92783" fill="#DADADA"/>
        <path d="M114.619 259.763H164.217" stroke="#EDECE8" stroke-width="0.5" stroke-linecap="square"/>
        <rect x="4.90723" y="265.546" width="49.5979" height="23.6517" fill="#EDECE8"/>
        <rect x="59.7629" y="265.546" width="49.5979" height="23.6517" fill="#EDECE8"/>
        <rect x="114.619" y="265.546" width="49.5979" height="23.6517" fill="#EDECE8"/>
    </g>
</svg>
